<?xml version="1.0" encoding="UTF-8" standalone="no"?>
<!-- Created with Inkscape (http://www.inkscape.org/) -->

<svg
   xmlns:dc="http://purl.org/dc/elements/1.1/"
   xmlns:cc="http://creativecommons.org/ns#"
   xmlns:rdf="http://www.w3.org/1999/02/22-rdf-syntax-ns#"
   xmlns:svg="http://www.w3.org/2000/svg"
   xmlns="http://www.w3.org/2000/svg"
   xmlns:sodipodi="http://sodipodi.sourceforge.net/DTD/sodipodi-0.dtd"
   xmlns:inkscape="http://www.inkscape.org/namespaces/inkscape"
   version="1.1"
   id="svg2"
   width="445"
   height="445"
   viewBox="0 0 445 445"
   sodipodi:docname="ninja_base.svg"
   inkscape:version="0.92.5 (2060ec1f9f, 2020-04-08)">
  <metadata
     id="metadata8">
    <rdf:RDF>
      <cc:Work
         rdf:about="">
        <dc:format>image/svg+xml</dc:format>
        <dc:type
           rdf:resource="http://purl.org/dc/dcmitype/StillImage" />
        <dc:title></dc:title>
      </cc:Work>
    </rdf:RDF>
  </metadata>
  <defs
     id="defs6" />
  <sodipodi:namedview
     pagecolor="#ffffff"
     bordercolor="#666666"
     borderopacity="1"
     objecttolerance="10"
     gridtolerance="10"
     guidetolerance="10"
     inkscape:pageopacity="0"
     inkscape:pageshadow="2"
     inkscape:window-width="1975"
     inkscape:window-height="1444"
     id="namedview4"
     showgrid="false"
     inkscape:zoom="0.99331667"
     inkscape:cx="117.94289"
     inkscape:cy="418.85551"
     inkscape:window-x="1255"
     inkscape:window-y="571"
     inkscape:window-maximized="0"
     inkscape:current-layer="svg2" />
  <path
     style="fill:#1b191a;stroke-width:0.47999999"
     d="m 191.96663,438.12871 c -3.62974,-4.09464 -5.79177,-6.89088 -5.4,-6.9839 0.35936,-0.0854 0.65337,-0.2569 0.65337,-0.38112 0,-0.17328 -39.31547,-43.95934 -45.55239,-50.73218 -1.16353,-1.2635 -0.89411,-1.19235 4.2753,1.12898 3.0344,1.36259 7.53068,3.36342 9.99174,4.44628 l 4.47464,1.96883 25.53577,26.18219 c 14.04468,14.40022 26.58665,27.3162 27.87104,28.7022 l 2.33527,2.52 -9.06569,-0.0115 -9.06568,-0.0115 -6.05337,-6.82872 z m 44.04784,1.45128 c 2.93634,-2.97 15.49601,-15.84571 27.91038,-28.61271 l 22.57158,-23.21271 9.49817,-4.27516 c 5.224,-2.35134 9.63167,-4.21762 9.79482,-4.14729 0.16315,0.0703 -9.28906,10.71187 -21.00492,23.64787 -25.04196,27.64992 -24.96481,27.56064 -24.21689,28.02288 0.36868,0.22786 -1.52929,2.7095 -5.47822,7.1629 l -6.04234,6.81422 h -9.18569 -9.1857 z m -43.22623,-24.79175 -29.70884,-29.71175 -3.4097,-1.32323 c -7.9698,-3.09292 -23.3297,-10.90122 -23.3297,-11.8598 0,-0.25053 1.44189,-2.32255 3.20419,-4.60449 1.7623,-2.28194 3.23958,-4.20425 3.28283,-4.27181 0.0433,-0.0676 3.19137,1.48273 6.99581,3.44509 19.22401,9.91588 38.83977,15.61391 60.60326,17.60416 8.77562,0.80252 27.92879,0.29863 36.42184,-0.9582 20.20504,-2.99001 40.79098,-9.94845 56.70902,-19.16872 2.34132,-1.35617 4.4358,-2.35523 4.6544,-2.22012 0.60143,0.3717 6.68865,8.34258 6.68865,8.75842 0,0.54464 -12.46131,7.31612 -18.48,10.04202 -2.904,1.31524 -7.44,3.20853 -10.08,4.20731 l -4.8,1.81595 -29.04146,28.97846 c -15.97281,15.93816 -29.25746,28.97846 -29.52145,28.97846 -0.264,0 -13.84898,-13.3703 -30.18885,-29.71175 z m 33.82935,7.50033 c 2.80709,-1.89168 3.91598,-4.01918 3.70067,-7.09997 -0.2303,-3.29517 -1.66636,-5.48764 -4.41077,-6.734 -2.62398,-1.19167 -4.50934,-1.1405 -7.02668,0.19071 -2.31701,1.22526 -4.30081,4.29984 -4.30081,6.66559 0,1.63429 1.14437,4.54071 2.29831,5.83709 2.12995,2.39294 7.02945,2.96674 9.73928,1.14058 z m 25.1665,-19.60196 c 8.73543,-8.78298 10.30757,-10.56469 9.11591,-10.33109 -7.51736,1.47363 -17.22117,2.80803 -23.76,3.26731 -4.356,0.30596 -7.99555,0.61404 -8.08788,0.68461 -0.22498,0.17196 11.55993,16.99255 11.90538,16.99255 0.14887,0 5.02084,-4.77602 10.82659,-10.61338 z m -42.08474,1.34644 5.91934,-7.77306 -2.55934,-0.32966 c -1.40764,-0.18131 -5.77877,-0.69006 -9.71362,-1.13054 -3.93485,-0.44049 -10.03685,-1.37959 -13.56,-2.0869 -3.52315,-0.70731 -6.40573,-1.17246 -6.40573,-1.03365 0,0.3422 19.84748,20.1878 20.15571,20.15381 0.13436,-0.0148 2.908,-3.52482 6.16364,-7.8 z M 120.74,369.07067 c -4.752,-3.69052 -11.71254,-9.07343 -15.46787,-11.96204 l -6.827874,-5.25201 7.678804,-10.00351 7.67881,-10.00351 8.74906,2.57335 c 4.81199,1.41534 9.54443,2.79006 10.51653,3.05493 1.66412,0.45343 2.064,0.99953 6.84,9.34113 2.7899,4.87275 5.07254,8.985 5.07254,9.13834 0,0.42054 -15.05922,19.90872 -15.34885,19.86299 -0.13813,-0.0218 -4.13915,-3.05916 -8.89115,-6.74967 z m 5.46937,-10.8126 c -0.93109,-1.50653 -0.99023,-1.90778 -0.48653,-3.30076 0.31538,-0.87216 0.4419,-2.10972 0.28117,-2.75015 -0.22643,-0.90218 0.0245,-1.4309 1.11404,-2.34773 1.32543,-1.11528 3.40884,-5.89255 2.82459,-6.4768 -0.48532,-0.48532 -4.55991,2.71019 -5.59847,4.39062 -0.69976,1.13222 -1.40281,1.68674 -2.13859,1.68674 -0.60286,0 -1.63411,0.42319 -2.29166,0.94041 -1.01946,0.80191 -1.46116,0.86707 -2.99907,0.44244 -1.83202,-0.50585 -5.76622,-0.20982 -6.95212,0.5231 -0.99859,0.61717 3.85123,2.89405 6.16439,2.89405 1.47004,0 2.22433,0.3253 3.33903,1.44 0.792,0.792 1.76164,1.44 2.15474,1.44 0.45826,0 0.82965,0.68024 1.035,1.89568 0.20982,1.24193 1.01068,2.6815 2.32219,4.17425 l 2.00192,2.27856 0.14465,-2.7577 c 0.11422,-2.17753 -0.0783,-3.11851 -0.91528,-4.47271 z m -4.78993,-4.28695 c -0.42649,-0.51389 -0.44522,-0.85735 -0.0674,-1.23521 0.6628,-0.6628 2.02792,-0.16624 2.02792,0.73766 0,1.00022 -1.27487,1.32375 -1.96056,0.49755 z M 314.9,366.15844 c -4.092,-5.33078 -7.50432,-9.84165 -7.58292,-10.02416 -0.12233,-0.284 9.12387,-16.83519 9.95856,-17.82635 0.44079,-0.52342 20.16889,-6.20391 20.9556,-6.03394 0.79566,0.17191 15.5186,19.18958 15.2361,19.68051 -0.20534,0.35683 -30.7339,23.90867 -30.981,23.90087 -0.0805,-0.003 -3.49434,-4.36616 -7.58634,-9.69693 z m 12.59947,-3.08122 c 1.11168,-1.33538 1.91525,-2.88563 2.10239,-4.05592 0.23472,-1.46781 0.56026,-1.95893 1.44585,-2.18119 0.62861,-0.15778 1.56908,-0.88534 2.08993,-1.6168 0.75111,-1.05484 1.33651,-1.33532 2.83005,-1.35593 1.59314,-0.022 6.77231,-2.08793 6.77231,-2.70145 0,-0.10883 -1.21416,-0.44994 -2.69815,-0.75801 -2.09309,-0.43452 -3.17175,-0.42753 -4.81013,0.0312 -1.82826,0.51188 -2.22856,0.48583 -2.97965,-0.1939 -0.47721,-0.43188 -1.44194,-0.78523 -2.14385,-0.78523 -0.9592,0 -1.56675,-0.4603 -2.44606,-1.85321 -0.95176,-1.50768 -4.72016,-4.38679 -5.74178,-4.38679 -0.13677,0 0.17862,1.24194 0.70086,2.75986 0.6122,1.77941 1.46488,3.16318 2.40017,3.89516 1.15759,0.90595 1.39621,1.39081 1.1812,2.40014 -0.1482,0.69566 0.0332,1.83937 0.40306,2.54157 0.59379,1.1273 0.57274,1.44077 -0.17982,2.67827 -0.88568,1.45638 -1.80019,7.8281 -1.11583,7.7744 0.21449,-0.0169 1.19974,-1.00331 2.18945,-2.19217 z m 1.48173,-9.5695 c -0.15877,-0.41374 -0.0424,-0.99848 0.25849,-1.29942 0.67557,-0.67557 2.27603,0.70488 1.76878,1.52563 -0.47909,0.77518 -1.69507,0.6395 -2.02727,-0.22621 z m -285.023161,14.6335 c 2.971008,-3.04187 4.690023,-3.9384 9.94428,-5.18628 8.880163,-2.10904 13.991458,-5.16912 25.82629,-15.46198 14.460927,-12.57678 13.236777,-11.3733 12.409827,-12.20025 -0.66078,-0.66077 -1.37201,-0.18101 -6.99365,4.71758 -13.541224,11.79956 -18.640782,15.84052 -22.022041,17.45056 -3.187128,1.5176 -9.280306,3.51914 -10.713135,3.51914 -0.359395,0 0.501917,-1.026 1.914024,-2.28 5.981444,-5.31174 19.389303,-17.58578 25.726133,-23.55064 l 6.829769,-6.42887 -2.06912,-2.71025 C 77.117754,315.934 68.456006,300.55686 63.364492,287.93745 l -2.066779,-5.12254 -30.63888,-30.63607 -30.6388795,-30.63608 31.1637685,-31.20138 31.16377,-31.20139 2.952365,-6.72 c 4.25627,-9.68788 10.573406,-21.07109 15.636014,-28.17544 l 1.607245,-2.25544 -2.171173,-1.91114 -2.171165,-1.91114 0.756864,-1.46361 c 1.024157,-1.9805 6.337104,-7.60609 7.545634,-7.98966 0.70146,-0.22264 1.40806,0.11311 2.53323,1.20367 l 1.56044,1.51243 1.58694,-1.82484 c 0.87282,-1.00366 2.72502,-3.06187 4.11599,-4.5738 l 2.52904,-2.74897 3.395544,4.45862 c 1.86755,2.45223 3.39554,4.61631 3.39554,4.80906 0,0.19275 -1.64633,2.23141 -3.65851,4.53036 -41.681137,47.62129 -51.642112,115.90986 -25.308035,173.50198 7.190101,15.72461 17.957041,31.82637 28.824355,43.10627 l 2.57076,2.66836 -3.54425,4.61765 -3.54426,4.61765 -2.545344,-2.57735 -2.54533,-2.57735 -2.4447,2.17479 c -10.13112,9.01262 -22.656669,19.48019 -25.300524,21.1436 -3.512078,2.20966 -7.443873,3.97113 -11.470593,5.13891 -3.238363,0.93914 -12.273682,2.68539 -13.894579,2.68539 -1.099877,0 -1.015714,-0.17118 1.199049,-2.43877 z m 10.32409,-109.67809 c -1.38636,-6.37401 -2.800023,-16.83656 -3.324811,-24.60694 -0.255701,-3.78608 -0.5352,-6.94489 -0.621116,-7.01958 -0.08591,-0.0747 -4.541788,2.57788 -9.901944,5.89458 l -9.745737,6.03037 12.123979,12.13097 c 6.668184,6.67204 12.186355,12.0686 12.262598,11.99236 0.07624,-0.0762 -0.280598,-2.06603 -0.792969,-4.42176 z M 34.944383,228.02258 c 1.820698,-1.11009 3.345082,-3.40651 3.776323,-5.68889 1.102402,-5.83453 -5.422339,-10.79497 -10.970846,-8.3406 -2.901375,1.28342 -4.353172,3.43369 -4.588125,6.79551 -0.215311,3.08079 0.893585,5.20828 3.700667,7.09997 2.11544,1.42559 5.861736,1.48771 8.081981,0.13401 z m 16.137202,-19.08259 c 0.439085,-6.35639 2.003078,-16.96709 3.473529,-23.56567 0.667445,-2.99513 1.134149,-5.52506 1.037122,-5.62209 -0.09703,-0.097 -4.806533,4.45747 -10.46557,10.1211 -10.24308,10.2514 -10.284892,10.30173 -9.33791,11.24001 1.704106,1.68845 14.383147,12.4778 14.680392,12.49242 0.159034,0.008 0.43463,-2.09177 0.612437,-4.66577 z M 400.98247,368.91345 c -7.01331,-1.33129 -9.81241,-2.21323 -14.56247,-4.58836 -4.7011,-2.35066 -7.11607,-4.16585 -21.18304,-15.92205 l -11.77016,-9.83669 -1.55051,1.84682 c -0.85277,1.01575 -1.73844,1.84682 -1.96814,1.84682 -0.35135,0 -5.77173,-6.69181 -6.87847,-8.49192 -0.21417,-0.34835 0.89194,-1.94326 2.8296,-4.08 4.74485,-5.23235 12.93442,-16.3185 16.93297,-22.92202 13.17882,-21.76452 20.8237,-45.07687 23.13393,-70.54478 0.8119,-8.95032 0.33432,-27.5378 -0.92602,-36.04128 -4.87968,-32.9231 -18.18811,-61.47746 -40.11455,-86.06918 l -4.19879,-4.70917 3.49298,-4.58657 3.49299,-4.58656 3.15886,3.29574 c 1.73738,1.81266 3.97075,4.21906 4.96305,5.34758 1.93715,2.20304 2.50941,2.2252 4.37009,0.16917 l 0.89404,-0.98791 2.11372,1.73203 c 1.16254,0.95263 3.18132,3.15761 4.48616,4.89998 l 2.37245,3.16794 -1.97829,2.01573 -1.97829,2.01573 3.84297,5.90774 c 6.86849,10.55887 11.32139,19.18563 16.05695,31.10775 l 2.38324,6 28.29116,28.32153 28.29115,28.32152 -27.83605,27.83295 -27.83606,27.83295 -1.44995,4.00715 c -5.21428,14.41038 -13.03403,29.40031 -21.52494,41.26185 l -3.8529,5.38239 10.64992,9.49154 c 5.85746,5.22035 14.26793,12.59549 18.68993,16.38921 4.422,3.79371 8.04,6.95529 8.04,7.02572 0,0.27131 -6.13823,-1.2788 -8.88,-2.2425 -1.584,-0.55676 -3.636,-1.45702 -4.56,-2.00057 -2.03759,-1.19865 -12.69545,-9.6654 -21.80455,-17.32182 -6.10864,-5.13446 -6.74964,-5.5524 -7.44,-4.85089 -0.67978,0.69075 -0.68131,0.8248 -0.0154,1.33831 0.40706,0.31386 4.61906,3.81927 9.36,7.78979 18.48623,15.48214 21.01885,17.02062 31.9445,19.40518 4.91891,1.07357 6.47093,1.89172 9.53535,5.02656 l 2.13994,2.18913 -1.65994,-0.0392 c -0.91297,-0.0216 -4.28683,-0.53786 -7.49747,-1.14732 z m 11.82746,-128.88872 c -0.006,-0.13461 -3.29953,-2.58044 -7.32,-5.43518 l -7.30993,-5.19044 -0.30825,3.03044 c -0.16953,1.66674 -0.56636,5.62244 -0.88184,8.79044 -0.31548,3.168 -0.98349,8.028 -1.48447,10.8 -0.50097,2.772 -0.91414,5.36187 -0.91815,5.75526 -0.004,0.3934 4.09671,-3.38447 9.11271,-8.39526 5.016,-5.01079 9.11547,-9.22066 9.10993,-9.35526 z m 6.13446,-12.00215 c 1.82069,-1.11009 3.34508,-3.40651 3.77632,-5.68889 1.1024,-5.83453 -5.42234,-10.79497 -10.97085,-8.3406 -4.22129,1.86728 -5.9745,7.05048 -3.73351,11.03779 2.07759,3.69657 7.38768,5.15029 10.92804,2.9917 z m -14.72701,-21.90292 c 3.27944,-2.80518 6.01722,-5.23697 6.08394,-5.40397 0.0667,-0.16701 -3.55127,-3.97147 -8.04,-8.45438 -4.48872,-4.4829 -8.16132,-8.04102 -8.16132,-7.90693 0,0.13408 0.64776,4.0865 1.43946,8.78315 0.7917,4.69665 1.58016,10.68656 1.75215,13.31091 0.17198,2.62435 0.45905,4.77155 0.63792,4.77155 0.17887,0 3.0084,-2.29515 6.28785,-5.10033 z M 215.06,360.69553 c -0.924,-0.10785 -3.732,-0.41963 -6.24,-0.69285 -15.42499,-1.68036 -31.02775,-6.98671 -43.75586,-14.88093 -12.32181,-7.64223 -24.39698,-19.69674 -33.1585,-33.10176 -3.46641,-5.30356 -9.87229,-17.59394 -12.1338,-23.28 -12.891,-32.41153 -18.00532,-77.50729 -12.46608,-109.92 7.62326,-44.60726 34.98804,-75.98883 76.31424,-87.51615 22.89228,-6.38545 50.51389,-7.01295 74.64,-1.69565 12.41498,2.73622 27.45361,8.96058 37.2,15.39677 28.05334,18.52548 44.51805,48.64032 47.79229,87.41463 0.73426,8.69522 0.34574,29.26741 -0.74485,39.4404 -2.45232,22.87525 -7.88094,44.03363 -15.62868,60.91381 -17.74995,38.67222 -46.41489,61.28284 -84.93876,66.99886 -5.23244,0.77637 -22.92961,1.38397 -26.88,0.92287 z m -64.19707,-78.18576 c 21.59649,-2.78278 40.46699,-4.06265 65.15707,-4.41922 30.11553,-0.43492 55.17711,0.95956 84.4683,4.7 4.34957,0.55543 8.83552,0.90536 9.96879,0.77763 2.71131,-0.3056 5.62919,-2.2891 6.82998,-4.64286 0.69488,-1.36206 2.04489,-8.6895 4.80949,-26.10426 2.11389,-13.31587 3.84344,-24.89212 3.84344,-25.72499 0,-3.34686 -3.43727,-7.49896 -7.107,-8.58503 -2.12849,-0.62993 -22.56648,-3.21757 -22.88642,-2.89763 -0.12332,0.12332 0.22046,1.79554 0.76394,3.71606 0.54349,1.9205 0.91646,3.54769 0.82883,3.61596 -0.0876,0.0683 -11.78461,3.22402 -25.99327,7.01278 -21.0167,5.60414 -25.91048,6.76479 -26.24446,6.2244 -0.5955,-0.96353 -1.9852,-6.71142 -1.72461,-7.13306 0.12156,-0.19668 9.10254,-3.58679 19.95775,-7.53358 22.95152,-8.34483 22.63124,-7.31841 2.71584,-8.70325 -18.19783,-1.26542 -66.23119,-1.25223 -84.0706,0.0231 -6.864,0.4907 -13.30355,1.02988 -14.31012,1.19819 -1.67033,0.2793 -0.28742,0.86736 15.84,6.73578 9.71857,3.53637 18.35655,6.70484 19.19553,7.04106 l 1.52542,0.61128 -1.01106,3.75895 c -0.55608,2.06742 -1.07677,3.8452 -1.15709,3.95062 -0.14508,0.19042 -51.55734,-13.40002 -51.98766,-13.74255 -0.12374,-0.0985 0.14903,-1.60507 0.60616,-3.34795 0.45712,-1.74288 0.75426,-3.24574 0.6603,-3.33969 -0.094,-0.094 -4.68672,0.39426 -10.20615,1.08493 -11.03954,1.38142 -13.71504,2.18425 -16.01717,4.80624 -2.94266,3.3515 -2.95976,2.91907 1.15083,29.09583 2.04272,13.00834 4.01098,24.73594 4.37391,26.06135 0.72213,2.63721 2.91241,5.25436 5.2571,6.28166 2.05704,0.90128 4.34758,0.82033 14.76293,-0.52172 z m 21.87093,-5.22511 c -4.62078,-1.27355 -8.37407,-5.75893 -10.72432,-12.81609 -1.89676,-5.69545 -2.5945,-10.49908 -2.60997,-17.96858 -0.0139,-6.71275 1.018,-15.86957 1.88621,-16.73778 0.29264,-0.29264 6.39529,1.07839 16.80697,3.7759 15.63985,4.05205 16.36263,4.2892 16.69737,5.47863 0.19244,0.68379 0.34988,5.13125 0.34988,9.88325 0,9.73038 -0.49747,12.44063 -3.35756,18.29211 -2.00487,4.10178 -4.90451,6.93538 -9.03623,8.83043 -3.61821,1.65952 -7.01633,2.08788 -10.01235,1.26213 z m 97.28614,-0.021 c -7.53489,-1.86705 -12.65608,-7.6461 -14.96899,-16.89189 -0.88791,-3.54938 -1.22533,-17.49055 -0.50506,-20.86756 l 0.36595,-1.71578 16.19405,-4.18046 c 8.90673,-2.29926 16.43423,-4.17315 16.72779,-4.16422 1.48678,0.0452 2.94991,15.99982 2.12108,23.12915 -1.59633,13.73117 -6.33816,22.63175 -13.13204,24.64931 -2.8192,0.83721 -3.57276,0.8418 -6.80278,0.0414 z M 63.859996,221.09302 v -7.88698 l 3.96,1.32973 3.96,1.32974 0.13548,5.33146 0.13548,5.33147 -3.880258,1.22578 c -2.134142,0.67417 -3.977107,1.22577 -4.09548,1.22577 -0.118372,0 -0.215222,-3.54914 -0.215222,-7.88697 z m 316.080004,6.69064 -3.36,-1.10054 -0.13424,-5.45699 -0.13424,-5.45698 4.09424,-1.24783 4.09424,-1.24781 v 7.85324 c 0,5.98814 -0.1425,7.84186 -0.6,7.80534 -0.33,-0.0263 -2.112,-0.54314 -3.96,-1.14843 z m -299.160004,-1.31533 -4.92,-1.48338 v -3.74187 -3.74186 l 4.92,-1.48964 c 2.706,-0.81931 5.13186,-1.54721 5.39081,-1.61756 0.25894,-0.0703 2.20294,0.67856 4.32,1.66423 2.11705,0.98567 4.74934,2.05714 5.84953,2.38103 1.35493,0.39889 1.91913,0.80053 1.74865,1.2448 -0.31173,0.81236 -7.86412,0.92777 -9.33123,0.1426 -1.22702,-0.65668 -2.44387,0.25087 -2.24092,1.67131 0.11498,0.80481 0.42655,0.97102 1.58316,0.84455 0.792,-0.0866 3.33,-0.26392 5.64,-0.39406 3.89856,-0.21964 4.2,-0.17073 4.2,0.68147 0,0.66651 -0.559,1.08158 -2.04,1.51473 -1.122,0.32816 -3.58912,1.33435 -5.4825,2.23598 -1.89337,0.90163 -3.72937,1.62397 -4.08,1.60519 -0.35062,-0.0188 -2.8515,-0.70167 -5.5575,-1.51752 z m 276.153814,-0.39779 c -2.0934,-1.03366 -4.53422,-2.01597 -5.42404,-2.1829 -1.14992,-0.21573 -1.57387,-0.52971 -1.4658,-1.08558 0.12784,-0.65749 0.80069,-0.7687 4.22404,-0.69812 2.23959,0.0462 4.82799,0.15418 5.75199,0.24 1.41975,0.13188 1.7031,-0.006 1.82913,-0.89147 0.17788,-1.24952 -1.28485,-2.23073 -2.33499,-1.56634 -0.38178,0.24154 -2.69214,0.44247 -5.13414,0.44651 -5.21993,0.009 -5.9427,-0.77143 -1.92,-2.07219 1.386,-0.44817 4.02119,-1.54133 5.85598,-2.42923 2.56561,-1.24157 3.61864,-1.52411 4.56,-1.22352 0.67321,0.21497 3.11402,0.95162 5.42402,1.637 l 4.2,1.24615 v 3.72814 3.72813 l -5.24305,1.53643 c -2.88368,0.84504 -5.52968,1.52068 -5.88,1.50141 -0.35032,-0.0192 -2.34973,-0.88076 -4.44314,-1.91442 z M 69.619996,124.55787 c 0,-0.84047 4.158917,-5.95357 4.760222,-5.85236 1.431653,0.24095 0.924504,1.23598 -1.867814,3.66467 -1.590826,1.38365 -2.892408,2.36811 -2.892408,2.18769 z m 305.806304,-2.331 c -2.23958,-2.26774 -2.81275,-3.64688 -1.51564,-3.64688 0.34409,0 3.53252,3.97144 4.52802,5.64 0.82594,1.38435 -0.62484,0.42445 -3.01238,-1.99312 z m -308.191136,1.32592 c -0.05454,-1.96748 22.081392,-26.5728 23.905952,-26.5728 0.36363,0 -2.09615,2.862 -5.46618,6.36 -3.37002,3.498 -8.415025,9.04348 -11.211126,12.3233 -2.796096,3.27981 -5.562988,6.51981 -6.148646,7.2 -0.585658,0.68018 -1.071658,0.99046 -1.08,0.6895 z M 376.1,118.41402 c -2.376,-2.88687 -7.85477,-8.89052 -12.17504,-13.34144 -5.14685,-5.30251 -7.55208,-8.09259 -6.97632,-8.09259 1.02504,0 4.98133,3.97611 14.54528,14.61813 6.8839,7.65986 9.40956,10.898 9.09405,11.65941 -0.0924,0.22293 -2.11197,-1.95665 -4.48797,-4.84351 z M 70.664711,112.81851 c -0.640641,-0.53395 -1.049198,-1.32982 -0.96,-1.8701 0.218016,-1.32053 8.547111,-10.60842 9.513303,-10.60842 0.437054,0 1.299816,0.53773 1.917259,1.19497 1.111493,1.18313 1.113513,1.20568 0.203669,2.27649 -2.846444,3.35002 -9.000946,9.96622 -9.258058,9.95257 -0.16549,-0.009 -0.802766,-0.43426 -1.416173,-0.94551 z m 300.064089,-4.49996 -4.8912,-5.45413 1.36615,-1.30886 c 0.93374,-0.89458 1.64629,-1.20759 2.2512,-0.98891 1.04813,0.37889 8.98019,9.40561 9.18979,10.45801 0.12858,0.64559 -1.96982,2.76107 -2.72947,2.75168 -0.1624,-0.002 -2.49631,-2.45801 -5.18647,-5.45779 z M 102.5272,103.10196 C 98.420236,97.75704 95.059996,93.2513 95.059996,93.0892 c 0,-0.1621 6.946674,-5.63032 15.437044,-12.1516 14.85173,-11.40732 15.46928,-11.8239 16.28761,-10.98724 0.46782,0.4783 3.9699,4.94366 7.7824,9.92303 l 6.93182,9.05339 -4.81002,8.46661 c -2.64551,4.65663 -5.04825,8.72472 -5.33943,9.0402 -0.46083,0.49928 -19.74032,6.3864 -20.91457,6.3864 -0.24225,0 -3.8007,-4.37312 -7.90765,-9.71803 z m 23.53094,-4.08715 c -0.42882,-1.29106 -1.49264,-3.0384 -2.36403,-3.88299 -1.23683,-1.19878 -1.54015,-1.83678 -1.38284,-2.9086 0.11083,-0.75514 -0.0413,-1.82672 -0.33812,-2.38128 -0.43184,-0.80691 -0.34523,-1.38934 0.43361,-2.91601 0.64228,-1.25897 0.97324,-2.84248 0.97324,-4.65662 v -2.74893 l -1.38376,1.32573 c -1.50473,1.44162 -2.73752,3.64957 -3.14521,5.63312 -0.16711,0.81304 -0.76557,1.46914 -1.68896,1.85162 -0.78658,0.32581 -1.55988,1.00116 -1.71845,1.50076 -0.22334,0.70368 -0.74857,0.90838 -2.33073,0.90838 -1.38775,0 -2.95325,0.49333 -4.88405,1.5391 l -2.84164,1.53909 2.98406,0.60397 c 2.44969,0.49581 3.31187,0.48831 4.81465,-0.0419 1.65018,-0.58221 1.94049,-0.55689 2.94552,0.25694 0.61321,0.49655 1.74249,0.90281 2.50951,0.90281 1.10845,0 1.55143,0.32889 2.15897,1.60291 0.68697,1.44061 5.3187,4.93848 5.84388,4.41329 0.10671,-0.1067 -0.15683,-1.25033 -0.58565,-2.54138 z M 117.62,91.69999 c 0,-0.79024 0.24879,-0.99144 1.08,-0.87338 0.594,0.0844 1.08,0.47738 1.08,0.87338 0,0.396 -0.486,0.78902 -1.08,0.87338 -0.83121,0.11806 -1.08,-0.0831 -1.08,-0.87338 z m 206.64,18.29562 c -5.016,-1.50198 -9.47148,-2.86799 -9.90106,-3.03557 -0.64581,-0.25192 -10.39886,-16.55081 -10.65833,-17.81176 -0.15226,-0.7399 14.7994,-19.9632 15.37655,-19.76958 1.12492,0.37739 30.88086,23.46724 30.74963,23.86092 -0.0734,0.22004 -3.44953,4.71563 -7.50262,9.99022 -4.5397,5.90782 -7.67163,9.5722 -8.15672,9.54339 -0.4331,-0.0257 -4.89145,-1.27564 -9.90745,-2.77762 z m -3.25789,-9.66148 c 1.27923,-0.79521 2.7316,-2.19921 3.22747,-3.12 0.61091,-1.13438 1.24325,-1.67414 1.96127,-1.67414 0.58283,0 1.64044,-0.45682 2.35024,-1.01515 1.16108,-0.91331 1.49262,-0.95862 3.30473,-0.45167 1.59471,0.44613 2.61396,0.42653 4.89418,-0.0941 l 2.88,-0.6576 -2.50404,-1.29073 c -1.60708,-0.82838 -3.26372,-1.29073 -4.6248,-1.29073 -1.72885,0 -2.26512,-0.22034 -2.90203,-1.19238 -0.4297,-0.65581 -1.32151,-1.32797 -1.98181,-1.4937 -0.9148,-0.22959 -1.31962,-0.77407 -1.70085,-2.28761 -0.29253,-1.16138 -1.37669,-2.98305 -2.6105,-4.38631 l -2.11018,-2.4 0.29652,3.34716 c 0.1722,1.94379 0.6789,3.99525 1.20851,4.89288 0.7326,1.24165 0.8049,1.74581 0.36757,2.56296 -0.29943,0.5595 -0.47878,1.64303 -0.39856,2.40785 0.10703,1.02037 -0.25086,1.81104 -1.3443,2.96987 -1.14307,1.21143 -3.05553,5.25775 -3.05553,6.46479 0,0.33656 0.50874,0.097 2.74211,-1.29137 z m 4.29778,-8.35905 c -0.36602,-0.95382 0.99114,-2.03606 1.68419,-1.34301 0.6628,0.6628 0.16624,2.02792 -0.73766,2.02792 -0.37604,0 -0.80198,-0.30821 -0.94653,-0.68491 z M 57.262698,99.45003 C 42.662327,85.53573 22.843748,66.28002 22.69621,65.86526 c -0.06808,-0.19139 1.909341,-2.50287 4.394273,-5.13663 l 4.518059,-4.78864 2.085729,1.9604 c 1.871842,1.75936 39.743367,37.59988 42.625771,40.3398 l 1.180052,1.12171 -4.919362,4.99909 -4.919357,4.99908 z m 12.250493,2.54274 c 1.509423,-1.05723 1.500101,-3.57573 -0.0132,-3.56543 -0.594,0.004 -1.317662,0.16604 -1.608144,0.36 -0.714048,0.47678 -1.631856,2.27718 -1.631856,3.20109 0,0.98099 1.855306,0.98346 3.253195,0.004 z m -7.26635,-7.48286 c 0.586857,-0.47138 1.176561,-2.83136 0.842534,-3.37182 -0.331003,-0.53558 -3.260827,0.49257 -3.909379,1.37189 -0.33,0.44742 -0.6,1.32937 -0.6,1.95989 0,1.0418 0.142339,1.11596 1.56,0.81283 0.858,-0.18346 1.806082,-0.53122 2.106845,-0.77279 z m -7.897906,-7.24992 c 0.413837,-0.33 0.886503,-1.32592 1.050379,-2.21316 l 0.297946,-1.61316 -1.797533,0.33721 c -1.773139,0.33264 -2.497997,0.91252 -2.512382,2.00985 -0.0038,0.30841 -0.138456,0.90241 -0.298704,1.32 -0.224626,0.58537 0.02918,0.75926 1.108257,0.75926 0.769786,0 1.738205,-0.27 2.152037,-0.6 z m -7.842585,-7.44 c 0.54599,-0.462 1.141728,-1.46742 1.323854,-2.23428 0.330346,-1.3909 0.32663,-1.39354 -1.537958,-1.09095 -2.050277,0.33271 -3.07225,1.3496 -3.07225,3.05697 0,1.38019 1.798757,1.52702 3.286354,0.26826 z m -8.767095,-6.84 c 1.101893,0 2.600741,-1.82008 2.600741,-3.15814 0,-1.14182 -0.121354,-1.21351 -1.56,-0.92151 -1.881715,0.38191 -3.24,1.83418 -3.24,3.46418 0,0.89538 0.19188,1.12455 0.759259,0.90683 0.417591,-0.16025 1.065591,-0.29136 1.44,-0.29136 z m -6.847704,-7.75186 c 1.335269,-0.70283 1.751914,-1.3388 1.761096,-2.68814 0.0048,-0.71383 -0.277449,-1.07778 -0.832651,-1.07345 -1.758536,0.0137 -2.978815,0.61421 -3.262189,1.60528 -0.161691,0.56549 -0.399401,1.40617 -0.528244,1.86817 -0.278985,1.00038 1.221792,1.15147 2.861988,0.28814 z m 344.729589,39.15659 -4.71375,-5.08323 3.0763,-3.01466 c 10.16863,-9.96487 42.27665,-40.15346 42.56773,-40.02303 0.19172,0.0859 2.34619,2.22122 4.78771,4.74513 l 4.43913,4.58895 -8.75913,8.62228 c -7.51635,7.39892 -20.83057,20.2084 -33.28168,32.02 l -3.40256,3.22779 z m 5.99886,-3.05751 c 0,-1.61001 -1.46658,-2.90722 -3.2868,-2.90722 -1.04391,0 -1.12416,0.14784 -0.84673,1.56 0.35031,1.7832 1.42099,2.76 3.02527,2.76 0.90666,0 1.10826,-0.257 1.10826,-1.41278 z m 7.68,-7.19293 c 0,-1.47814 -1.06199,-2.91429 -2.15503,-2.91429 -0.35555,0 -0.98812,-0.13111 -1.40571,-0.29136 -0.54878,-0.21058 -0.75926,-0.002 -0.75926,0.75156 0,1.49169 0.8558,2.88668 2.07138,3.37645 1.80839,0.72862 2.24862,0.54804 2.24862,-0.92236 z m 7.68,-7.38255 c 0,-1.62291 -0.98193,-2.67593 -2.835,-3.04027 l -1.635,-0.32147 0.31785,1.58925 c 0.43039,2.15197 1.13139,2.88075 2.77092,2.88075 1.12282,0 1.38123,-0.20734 1.38123,-1.10826 z m 7.68,-7.50452 c 0,-1.59032 -1.46166,-2.90722 -3.2268,-2.90722 -1.88717,0 -1.21144,3.25844 0.8268,3.98689 1.76954,0.63242 2.4,0.3488 2.4,-1.07967 z m 7.4854,-8.41722 c -0.17313,-0.6898 -0.8564,-1.31514 -1.79414,-1.64203 -2.15522,-0.75132 -2.33126,-0.68806 -2.33126,0.83763 0,1.57742 1.15762,2.79558 2.88,3.03063 1.32068,0.18024 1.68564,-0.47216 1.2454,-2.22623 z m 7.8746,-6.25 c 0,-1.55207 -1.58322,-3.12 -3.15041,-3.12 -1.09745,0 -1.21416,0.1674 -1.08,1.54906 0.24422,2.51517 4.23041,3.99543 4.23041,1.57094 z M 87.122236,104.63126 c -0.17293,-0.27981 0.94833,-1.67407 2.49167,-3.09836 3.05861,-2.82267 4.18687,-3.39293 2.59759,-1.31291 -0.55471,0.726 -1.59873,2.12539 -2.32004,3.10975 -1.32988,1.81489 -2.19937,2.22354 -2.76922,1.30152 z m 270.323674,-2.43611 c -1.21951,-1.64108 -2.10588,-3.09519 -1.96972,-3.23135 0.36258,-0.36258 5.53969,4.86857 5.35792,5.41385 -0.39363,1.18091 -1.34347,0.56908 -3.3882,-2.1825 z M 136.9013,78.93454 c -1.93528,-2.52843 -3.44728,-4.65476 -3.36,-4.72517 1.99005,-1.60529 18.34009,-9.86692 24.67296,-12.46718 l 4.35426,-1.78785 29.96429,-29.96716 29.96429,-29.96717 29.04145,29.00584 29.04145,29.00583 4.8,1.76856 c 7.98731,2.94291 21.98534,9.59766 26.59735,12.64453 0.53882,0.35597 -0.0345,1.38221 -2.8033,5.01785 l -3.48065,4.57037 -6.3167,-3.30005 C 261.61376,59.00439 218.23576,54.92514 177.20089,67.24357 c -10.61367,3.18617 -22.60397,8.29351 -31.92243,13.59755 -2.60784,1.48438 -4.76784,2.69701 -4.8,2.69473 -0.0322,-0.002 -1.64187,-2.07287 -3.57716,-4.60131 z m 53.1741,-26.81183 c 6.45185,-1.25801 14.89652,-2.4053 22.26987,-3.02559 l 4.24526,-0.35713 -5.38382,-6.24 c -2.9611,-3.432 -6.02691,-6.97394 -6.81291,-7.87097 l -1.4291,-1.63097 -10.39235,10.45337 c -5.71579,5.74935 -10.01971,10.32613 -9.56426,10.17061 0.45544,-0.15552 3.63574,-0.83022 7.06731,-1.49932 z M 251.3,42.25999 c -5.8035,-5.808 -10.66166,-10.54862 -10.79591,-10.53472 -0.26104,0.027 -12.15213,16.09661 -12.37929,16.72933 -0.0744,0.20712 2.84164,0.51034 6.48,0.67383 7.34318,0.32995 15.60843,1.33471 22.05166,2.68069 2.33395,0.48755 4.4577,0.91445 4.71945,0.94867 0.26175,0.0342 -4.27241,-4.6898 -10.07591,-10.4978 z m -23.9693,-8.39087 c 4.32963,-3.30238 4.12363,-9.55402 -0.4259,-12.92499 -1.03137,-0.7642 -2.06364,-1.00414 -4.32,-1.00414 -3.60213,0 -5.73299,1.28405 -7.09019,4.27251 -1.19167,2.62398 -1.1405,4.50934 0.19071,7.02668 2.26755,4.28801 7.82581,5.54326 11.64538,2.62994 z M 20.01439,63.46219 c -0.436917,-0.48278 -0.794394,-1.08084 -0.794394,-1.329 0,-0.24816 2.116313,-2.55958 4.702918,-5.13648 l 4.702917,-4.68527 1.154014,1.22839 1.154013,1.22839 -4.767925,4.78589 c -2.622359,2.63223 -4.900501,4.78588 -5.062537,4.78588 -0.162037,0 -0.652089,-0.39501 -1.089006,-0.8778 z m 404.06583,-1.6422 c -1.31284,-1.386 -3.34469,-3.54219 -4.51523,-4.79153 l -2.12824,-2.27153 1.17162,-1.26077 1.17163,-1.26078 4.66488,4.95747 4.66487,4.95747 -1.02855,1.09483 c -0.5657,0.60216 -1.16027,1.09484 -1.32127,1.09484 -0.161,0 -1.36687,-1.134 -2.67971,-2.52 z M 15.893456,59.33451 c -2.136709,-2.20452 -1.868967,-2.96796 2.766526,-7.88849 4.181687,-4.43881 3.986547,-4.39667 7.280014,-1.57213 l 1.68,1.4408 -4.790994,4.83265 c -2.635047,2.65796 -4.914675,4.83265 -5.065841,4.83265 -0.151165,0 -0.992532,-0.74047 -1.869705,-1.64548 z m 409.554554,-3.27452 -4.87484,-4.92 2.42193,-1.88123 2.42192,-1.88122 4.02149,4.09444 c 4.59702,4.68043 5.01801,5.97367 2.67522,8.21821 -0.74044,0.70939 -1.4463,1.2898 -1.56857,1.2898 -0.12227,0 -2.41599,-2.214 -5.09715,-4.92 z"
     id="path4520"
     inkscape:connector-curvature="0"
     sodipodi:nodetypes="ccsccscsccccccsscscscccccssccsscsssscssccsssccscsccscscssscccsscscscccscssccccccscscccssscccscccsccscscccscccccscccssscccccccccccscscsssssccscccccsscccsccccsccscssccccccscsscscscscccsssccsscsscsccsccscsssssccccccccccccccccccccscscsccsccsscccccccccsccscsssssccssscscccsssssssssssccssccsscsccsccssscscccccccscscccccsssscsssccsccscssccsccccccssccccccscccccccccccccccsccccccccccscsccscccsccsccscscccscsccccssccccscscccccccccssscscscsscccccscccccscccccsccccscscssccccccsccscscccscccccccccsscccsscsccccccccscccsccccssccccccccscsccsssscscssccccsccscccscccsscsssscsssscccssssssccsccsscscsccccsccscscccccccccssccssccsccscsscccccsccsccccssccccscscccccccssscscsssscccccss" />
</svg>
